<?xml version="1.0" encoding="UTF-8"?>
<!DOCTYPE svg  PUBLIC '-//W3C//DTD SVG 1.1//EN'  'http://www.w3.org/Graphics/SVG/1.1/DTD/svg11.dtd'>
<svg version="1.1" xmlns="http://www.w3.org/2000/svg">
<defs>
<font id="GolosText-Black" horiz-adv-x="600">
<font-face font-family="Golos Text Black" font-weight="900" ascent="774" bbox="-250 -215 1082 960" cap-height="700" descent="-226" panose-1="2 11 9 3 2 2 2 2 2 4" underline-position="-100" underline-thickness="50" unicode-range="U+0020-F6CE" units-per-em="1000" x-height="530"/>
<missing-glyph/>
<glyph glyph-name="space" horiz-adv-x="200" unicode=" "/>
<glyph d="M60 700h220v-450h-220v450zM170 -15q-25 0 -47 9.5t-38 25.5t-25.5 38t-9.5 47q0 26 9.5 48t25.5 38t38 25t47 9t47 -9t38 -25t25.5 -38t9.5 -48q0 -25 -9.5 -47t-25.5 -38t-38 -25.5t-47 -9.5z" glyph-name="exclam" horiz-adv-x="340" unicode="!"/>
<glyph d="M40 700h180v-300h-180v300zM280 700h180v-300h-180v300z" glyph-name="quotedbl" horiz-adv-x="520" unicode='"'/>
<glyph d="M77 145h-62v160h91l17 90h-69v160h99l27 145h180l-27 -145h90l27 145h180l-27 -145h62v-160h-92l-17 -90h70v-160h-99l-27 -145h-180l27 145h-90l-27 -145h-180zM376 305l17 90h-90l-17 -90h90z" glyph-name="numbersign" horiz-adv-x="680" unicode="#"/>
<glyph d="M233 -7q-101 16 -156 68.5t-67 148.5h264q3 -21 16 -31t45 -10q35 0 48 7.5t13 23.5q0 9 -5 15t-19.5 12t-41 12.5t-70.5 15.5q-50 10 -92 26.5t-73 43.5t-48 66.5t-17 93.5q0 93 55 148t148 73v94h204v-94q94 -19 145 -72.5t63 -133.5h-264q-2 14 -12.5 22.5t-33.5 8.5 q-41 0 -41 -31q0 -9 5.5 -16t18.5 -12.5t35.5 -10.5t56.5 -11q44 -8 88.5 -21.5t80.5 -38.5t58.5 -64.5t22.5 -99.5q0 -101 -60 -158.5t-163 -74.5v-113h-204v113z" glyph-name="dollar" horiz-adv-x="670" unicode="$"/>
<glyph d="M565 700h200l-480 -700h-200zM195 365q-89 0 -137 46t-48 124v10q0 78 48 124t137 46t137 -46t48 -124v-10q0 -78 -48 -124t-137 -46zM195 495q11 0 18 8.5t7 31.5v10q0 23 -7 31.5t-18 8.5t-18 -8.5t-7 -31.5v-10q0 -23 7 -31.5t18 -8.5zM655 -14q-89 0 -137 46t-48 124 v10q0 78 48 124t137 46t137 -46t48 -124v-10q0 -78 -48 -124t-137 -46zM655 116q11 0 18 8.5t7 31.5v10q0 23 -7 31.5t-18 8.5t-18 -8.5t-7 -31.5v-10q0 -23 7 -31.5t18 -8.5z" glyph-name="percent" horiz-adv-x="850" unicode="%"/>
<glyph d="M295 -15q-77 0 -129.5 16t-85 43.5t-46.5 65t-14 80.5q0 27 6 50.5t20 47t37.5 48t59.5 52.5q-21 24 -34.5 44t-21 38t-10 36t-2.5 39q0 36 13.5 67.5t40 54t66 35.5t90.5 13q103 0 156.5 -44t53.5 -121q0 -25 -4 -47t-15 -44t-31 -46t-53 -53l44 -49q3 21 3 44h216 q0 -65 -15.5 -119t-44.5 -99l125 -137h-214l-29 30q-42 -22 -88.5 -33.5t-93.5 -11.5zM295 163q26 0 50 9l-77 82q-16 -17 -19 -28.5t-3 -25.5q0 -11 11 -24t38 -13zM261 535q0 -11 2.5 -20.5t15.5 -27.5q21 18 25.5 28t4.5 20q0 9 -6.5 15.5t-17.5 6.5t-17.5 -6.5 t-6.5 -15.5z" glyph-name="ampersand" horiz-adv-x="722" unicode="&amp;"/>
<glyph d="M40 700h180v-300h-180v300z" glyph-name="quotesingle" horiz-adv-x="280" unicode="'"/>
<glyph d="M40 260q0 109 23.5 191t52.5 138q33 65 76 111h208q-49 -46 -87 -111q-33 -56 -60 -138t-27 -191v-20q0 -109 27 -191t60 -138q38 -65 87 -111h-209q-43 46 -76 111q-29 56 -52 138t-23 191v20z" glyph-name="parenleft" horiz-adv-x="380" unicode="("/>
<glyph d="M340.005 240.031q0 -108.986 -23.4971 -190.977q-23.4971 -81.9893 -52.4941 -137.982q-32.9951 -64.9922 -75.9902 -110.987h-207.975q48.9941 45.9951 86.9893 110.987q32.9961 55.9932 59.9932 137.982q26.9961 81.9902 26.9961 190.977v19.998 q0 108.986 -26.9961 190.977q-26.9971 81.9902 -59.9932 137.983q-37.9951 64.9922 -86.9893 110.986h208.975q42.9941 -45.9941 75.9902 -110.986q28.9971 -55.9932 51.9941 -137.983t22.9971 -190.977v-19.998z" glyph-name="parenright" horiz-adv-x="380" unicode=")"/>
<glyph d="M180 445l-78 -66l-67 116l101 30l-101 30l67 116l78 -66l-14 95h118l-14 -95l79 66l66 -116l-101 -30l101 -30l-67 -116l-78 66l14 -95h-118z" glyph-name="asterisk" horiz-adv-x="450" unicode="*"/>
<glyph d="M185 254h-160v212h160v169h230v-169h160v-212h-160v-169h-230v169z" glyph-name="plus" unicode="+"/>
<glyph d="M65 0v200h210v-200l-140 -175h-110z" glyph-name="comma" horiz-adv-x="340" unicode=","/>
<glyph d="M20 386h340v-212h-340v212z" glyph-name="hyphen" horiz-adv-x="380" unicode="-"/>
<glyph d="M170 -15q-25 0 -47 9.5t-38 25.5t-25.5 38t-9.5 47q0 26 9.5 48t25.5 38t38 25t47 9t47 -9t38 -25t25.5 -38t9.5 -48q0 -25 -9.5 -47t-25.5 -38t-38 -25.5t-47 -9.5z" glyph-name="period" horiz-adv-x="340" unicode="."/>
<glyph d="M320 700h180l-320 -900h-180z" glyph-name="slash" horiz-adv-x="500" unicode="/"/>
<glyph d="M335 -15q-61 0 -116 18t-97 60.5t-67 112.5t-25 174v20q0 97 25 163t67 106.5t97 58t116 17.5t116 -17.5t97 -58t67 -106.5t25 -163v-20q0 -104 -25 -174t-67 -112.5t-97 -60.5t-116 -18zM335 197q11 0 18.5 6t12.5 23t7.5 46.5t2.5 77.5v20q0 40 -2.5 66t-7.5 41 t-12.5 20.5t-18.5 5.5t-18.5 -5.5t-12.5 -20.5t-7.5 -41t-2.5 -66v-20q0 -48 2.5 -77.5t7.5 -46.5t12.5 -23t18.5 -6z" glyph-name="zero" horiz-adv-x="670" unicode="0"/>
<glyph d="M30 212h133v233l-133 -95v239l156 111h241v-488h103v-212h-500v212z" glyph-name="one" horiz-adv-x="540" unicode="1"/>
<glyph d="M15 150l209 170q42 34 67.5 57.5t38.5 39t17 26.5t4 22q0 38 -36 38q-23 0 -34.5 -15.5t-11.5 -62.5h-244q0 145 70.5 217.5t219.5 72.5q74 0 127 -16.5t87 -46.5t50 -71.5t16 -90.5q0 -36 -11.5 -67t-34 -61t-56.5 -60.5t-80 -64.5l-33 -25h225v-212h-590v150z" glyph-name="two" horiz-adv-x="630" unicode="2"/>
<glyph d="M320 -15q-81 0 -138 22t-93 61.5t-52.5 93.5t-16.5 118h224q0 -22 3.5 -40.5t12 -32t23 -21t37.5 -7.5q24 0 40 11.5t16 35.5q0 26 -15 37t-46 11h-40v162h40q17 0 29 10.5t12 31.5t-11 32t-30 11q-30 0 -45.5 -22t-15.5 -79h-224q0 148 70.5 221.5t219.5 73.5 q144 0 217 -53.5t73 -152.5q0 -54 -29 -93t-80 -56q65 -15 92 -55t27 -95t-20.5 -97t-59.5 -70.5t-94.5 -43t-125.5 -14.5z" glyph-name="three" horiz-adv-x="650" unicode="3"/>
<glyph d="M290 99h-280v182l270 419h274v-389h66v-212h-66v-99h-264v99zM290 311v136l-88 -136h88z" glyph-name="four" horiz-adv-x="645" unicode="4"/>
<glyph d="M336 -15q-87 0 -144.5 20t-92.5 54t-49.5 79.5t-14.5 96.5h244q1 -31 12 -44.5t31 -13.5q21 0 30 15t9 51q0 34 -12 47t-31 13q-34 0 -44 -28h-224v425h536v-212h-312v-61q17 14 48.5 26t79.5 12t89 -10.5t71 -36t46.5 -67.5t16.5 -104q0 -60 -19 -108.5t-55.5 -82.5 t-90.5 -52.5t-124 -18.5z" glyph-name="five" horiz-adv-x="650" unicode="5"/>
<glyph d="M347 -15q-78 0 -137 19.5t-99 61t-60.5 107t-20.5 157.5v20q0 97 22 166.5t63.5 113.5t102 64.5t137.5 20.5q59 0 107.5 -10.5t83 -36.5t55 -69.5t24.5 -108.5h-224q-5 15 -15.5 24t-35.5 9q-15 0 -27 -5t-19.5 -17t-11.5 -33t-4 -53q19 23 54.5 36.5t91.5 13.5 q52 0 91 -17.5t64.5 -47.5t38 -70t12.5 -85v-10q0 -116 -76 -183t-217 -67zM335 177q23 0 32 17t9 41v10q0 24 -9 41t-32 17t-32 -17t-9 -41v-10q0 -24 9 -41t32 -17z" glyph-name="six" horiz-adv-x="665" unicode="6"/>
<glyph d="M260 488h-250v212h520v-182l-170 -518h-280z" glyph-name="seven" horiz-adv-x="550" unicode="7"/>
<glyph d="M335 -15q-66 0 -122.5 13.5t-98.5 41t-65.5 68.5t-23.5 96q0 28 8 53.5t24 47t40 37t56 23.5q-51 17 -79.5 55.5t-28.5 92.5q0 48 20 85.5t57.5 63.5t91 39.5t121.5 13.5t121.5 -13.5t91 -39.5t57.5 -63.5t20 -85.5q0 -54 -29 -92.5t-80 -55.5q32 -8 56.5 -23.5t40.5 -37 t24 -47t8 -53.5q0 -55 -23.5 -96t-65.5 -68.5t-98.5 -41t-122.5 -13.5zM335 179q29 0 48.5 12t19.5 40t-19.5 41t-48.5 13t-48.5 -13t-19.5 -41t19.5 -40t48.5 -12zM335 435q20 0 34 11.5t14 32.5t-13.5 31.5t-34.5 10.5t-34.5 -10.5t-13.5 -31.5t13.5 -32.5t34.5 -11.5z " glyph-name="eight" horiz-adv-x="670" unicode="8"/>
<glyph d="M315 -15q-61 0 -110.5 10.5t-84.5 36.5t-55.5 69.5t-24.5 108.5h224q5 -15 16 -24t40 -9q13 0 24 5t18 17t11 33t4 53q-19 -23 -54.5 -36.5t-91.5 -13.5q-53 0 -91.5 17.5t-64 47.5t-38 70t-12.5 85v10q0 116 76 183t217 67q78 0 137 -19.5t99 -61t60.5 -107t20.5 -157.5 v-20q0 -98 -21.5 -167t-63 -113t-101 -64.5t-134.5 -20.5zM330 397q23 0 32 16.5t9 41.5v10q0 24 -9 41t-32 17t-32 -17t-9 -41v-10q0 -24 9 -41t32 -17z" glyph-name="nine" horiz-adv-x="665" unicode="9"/>
<glyph d="M170 -15q-25 0 -47 9.5t-38 25.5t-25.5 38t-9.5 47q0 26 9.5 48t25.5 38t38 25t47 9t47 -9t38 -25t25.5 -38t9.5 -48q0 -25 -9.5 -47t-25.5 -38t-38 -25.5t-47 -9.5zM170 305q-25 0 -47 9.5t-38 25.5t-25.5 38t-9.5 47q0 26 9.5 48t25.5 38t38 25t47 9t47 -9t38 -25 t25.5 -38t9.5 -48q0 -25 -9.5 -47t-25.5 -38t-38 -25.5t-47 -9.5z" glyph-name="colon" horiz-adv-x="340" unicode=":"/>
<glyph d="M65 0v200h210v-200l-140 -175h-110zM170 305q-25 0 -47 9.5t-38 25.5t-25.5 38t-9.5 47q0 26 9.5 48t25.5 38t38 25t47 9t47 -9t38 -25t25.5 -38t9.5 -48q0 -25 -9.5 -47t-25.5 -38t-38 -25.5t-47 -9.5z" glyph-name="semicolon" horiz-adv-x="340" unicode=";"/>
<glyph d="M25 272v176l550 227v-220l-255 -92l255 -93v-225z" glyph-name="less" unicode="&lt;"/>
<glyph d="M25 326h550v-212h-550v212zM25 606h550v-212h-550v212z" glyph-name="equal" unicode="="/>
<glyph d="M575 448v-176l-550 -227v220l255 92l-255 93v225z" glyph-name="greater" unicode="&gt;"/>
<glyph d="M170 300q0 23 9 43.5t23.5 38t31.5 32t33 26.5q20 14 33.5 28t13.5 32q0 37 -34 37t-34 -42h-226q0 46 17.5 86.5t51 70t81.5 46.5t110 17q65 0 114 -15t81.5 -41.5t48.5 -62t16 -76.5q0 -33 -7.5 -59.5t-20 -47.5t-28 -37.5t-31.5 -28.5q-26 -21 -44.5 -39.5 t-18.5 -42.5v-15h-220v50zM280 -15q-25 0 -47 9.5t-38 25.5t-25.5 38t-9.5 47q0 26 9.5 48t25.5 38t38 25t47 9t47 -9t38 -25t25.5 -38t9.5 -48q0 -25 -9.5 -47t-25.5 -38t-38 -25.5t-47 -9.5z" glyph-name="question" horiz-adv-x="560" unicode="?"/>
<glyph d="M511 -215q-106 0 -196 29t-155.5 88t-102.5 149.5t-37 212.5q0 112 38.5 197t102 141t147 84.5t173.5 28.5q105 0 189.5 -24t144.5 -76t92.5 -132.5t32.5 -192.5q0 -79 -20 -134.5t-54.5 -91t-80 -52t-96.5 -16.5q-50 0 -83.5 14t-52.5 57q-17 -38 -51 -55.5t-79 -17.5 q-91 0 -141.5 58t-50.5 176v60q0 118 45.5 171t125.5 53q28 0 46 -4t30.5 -10.5t20 -16t14.5 -21.5v44h186v-273q0 -34 6.5 -50t31.5 -16q11 0 20.5 5t17 18.5t11.5 38t4 63.5q0 84 -21 140.5t-61 90.5t-97.5 48.5t-129.5 14.5q-63 0 -119 -16.5t-98.5 -54t-67 -99 t-24.5 -150.5q0 -93 26.5 -159t72.5 -108t107.5 -61.5t132.5 -19.5q66 0 122 17.5t99 44.5v-141q-45 -23 -98 -37.5t-123 -14.5zM467 164q19 0 26.5 14.5t7.5 52.5v44q0 22 -1.5 35.5t-6 20.5t-11.5 9t-17 2q-22 0 -28.5 -13.5t-6.5 -53.5v-44q0 -37 7.5 -52t29.5 -15z" glyph-name="at" horiz-adv-x="960" unicode="@"/>
<glyph d="M453 94h-182l-25 -94h-244l248 700h264l248 -700h-284zM322 286h79l-39 174z" glyph-name="A" horiz-adv-x="764" unicode="A"/>
<glyph d="M40 700h405q119 0 177 -45t58 -142q0 -54 -26.5 -92.5t-73.5 -55.5q130 -30 130 -167q0 -98 -62 -148t-204 -50h-404v700zM364 172q47 0 64.5 12t17.5 42q0 29 -18 41t-66 12h-58v-107h60zM351 431q34 0 49.5 11.5t15.5 37.5t-15.5 37t-47.5 11h-49v-97h47z" glyph-name="B" horiz-adv-x="730" unicode="B"/>
<glyph d="M375 -15q-75 0 -140 19.5t-112.5 62.5t-75 111.5t-27.5 166.5v20q0 93 28 159t76.5 108.5t113 62.5t137.5 20q66 0 125.5 -15.5t105.5 -51t74 -91.5t30 -137h-260q-5 48 -27 64.5t-48 16.5q-17 0 -32 -7t-27 -23t-19 -42t-7 -64v-20q0 -76 23.5 -111t61.5 -35 q27 0 48.5 16t26.5 65h260q-2 -83 -29.5 -139.5t-73 -91t-105.5 -49.5t-127 -15z" glyph-name="C" horiz-adv-x="725" unicode="C"/>
<glyph d="M40 700h315q79 0 142.5 -21.5t108.5 -63.5t69.5 -105t24.5 -145v-20q0 -84 -25 -148.5t-71.5 -108t-112 -66t-146.5 -22.5h-305v700zM345 212q19 0 34.5 6t27 21t17.5 41t6 65v20q0 71 -21 97t-64 26h-41v-276h41z" glyph-name="D" horiz-adv-x="720" unicode="D"/>
<glyph d="M40 700h550v-192h-286v-72h256v-162h-256v-82h286v-192h-550v700z" glyph-name="E" horiz-adv-x="615" unicode="E"/>
<glyph d="M40 700h525v-192h-261v-101h231v-182h-231v-225h-264v700z" glyph-name="F" horiz-adv-x="580" unicode="F"/>
<glyph d="M395 -15q-79 0 -146 21.5t-115.5 66t-76 112t-27.5 160.5v20q0 93 28 159t76.5 108.5t114.5 62.5t141 20q60 0 116 -15t101.5 -47t77 -82.5t40.5 -120.5h-270q-17 51 -70 51q-42 0 -63.5 -30.5t-21.5 -105.5v-20q0 -76 26.5 -111t78.5 -35q36 0 54 12.5t29 32.5h-73v142 h325v-61q0 -90 -29 -154.5t-77.5 -106t-110.5 -60.5t-128 -19z" glyph-name="G" horiz-adv-x="770" unicode="G"/>
<glyph d="M40 700h264v-239h152v239h264v-700h-264v249h-152v-249h-264v700z" glyph-name="H" horiz-adv-x="760" unicode="H"/>
<glyph d="M45 700h264v-700h-264v700z" glyph-name="I" horiz-adv-x="354" unicode="I"/>
<glyph d="M285 -15q-63 0 -114.5 17.5t-88 53.5t-57 91.5t-20.5 132.5h224q0 -44 9.5 -62.5t31.5 -18.5q27 0 34 16.5t7 54.5v430h264v-430q0 -83 -22 -137.5t-61 -87.5t-92 -46.5t-115 -13.5z" glyph-name="J" horiz-adv-x="610" unicode="J"/>
<glyph d="M40 700h264v-210l150 210h286l-225 -297l235 -403h-296l-117 221l-33 -40v-181h-264v700z" glyph-name="K" horiz-adv-x="755" unicode="K"/>
<glyph d="M40 700h264v-488h256v-212h-520v700z" glyph-name="L" horiz-adv-x="580" unicode="L"/>
<glyph d="M40 700h265l153 -295l153 295h259v-700h-264v280l-81 -155h-140l-81 155v-280h-264v700z" glyph-name="M" horiz-adv-x="910" unicode="M"/>
<glyph d="M40 700h214l222 -290v290h244v-700h-214l-222 290v-290h-244v700z" glyph-name="N" horiz-adv-x="760" unicode="N"/>
<glyph d="M380 -15q-74 0 -139.5 21t-114.5 64.5t-77.5 111.5t-28.5 163v20q0 90 28.5 155.5t77.5 109t114.5 64.5t139.5 21t139.5 -21t114.5 -64.5t77.5 -109t28.5 -155.5v-20q0 -93 -28.5 -161t-77.5 -112.5t-114.5 -65.5t-139.5 -21zM380 199q42 0 66 33.5t24 112.5v20 q0 72 -24 104t-66 32t-66 -32t-24 -104v-20q0 -79 24 -112.5t66 -33.5z" glyph-name="O" horiz-adv-x="760" unicode="O"/>
<glyph d="M40 700h325q161 0 233 -65.5t72 -187.5q0 -115 -72 -179t-233 -64h-61v-204h-264v700zM334 386q41 0 56.5 18t15.5 43t-16 43t-56 18h-30v-122h30z" glyph-name="P" horiz-adv-x="685" unicode="P"/>
<glyph d="M380 -15q-74 0 -139.5 21t-114.5 64.5t-77.5 111.5t-28.5 163v20q0 90 28.5 155.5t77.5 109t114.5 64.5t139.5 21t139.5 -21t114.5 -64.5t77.5 -109t28.5 -155.5v-20q0 -67 -15 -119.5t-41 -94.5l51 -51l-110 -110l-57 56q-84 -41 -188 -41zM380 199q10 0 15 1l-60 60 l110 110l25 -25v10v10q0 72 -24 104t-66 32t-66 -32t-24 -104v-20q0 -79 24 -112.5t66 -33.5z" glyph-name="Q" horiz-adv-x="760" unicode="Q"/>
<glyph d="M40 700h315q84 0 143.5 -16.5t97.5 -49t56 -79.5t18 -108q0 -66 -28.5 -117t-88.5 -83l137 -247h-282l-99 206h-5v-206h-264v700zM334 386q36 0 51 18t15 43t-15.5 43t-50.5 18h-30v-122h30z" glyph-name="R" horiz-adv-x="705" unicode="R"/>
<glyph d="M335 -15q-150 0 -230 53.5t-95 171.5h264q3 -21 16 -31t45 -10q35 0 48 7.5t13 23.5q0 9 -5 15t-19.5 12t-41 12.5t-70.5 15.5q-50 10 -92 26.5t-73 43.5t-48 66.5t-17 93.5q0 58 22 101.5t62.5 72t96.5 42.5t124 14q143 0 219 -58t91 -157h-264q-2 14 -12.5 22.5 t-33.5 8.5q-41 0 -41 -31q0 -9 5.5 -16t18.5 -12.5t35.5 -10.5t56.5 -11q44 -8 88.5 -21.5t80.5 -38.5t58.5 -64.5t22.5 -99.5q0 -62 -23 -107.5t-65.5 -75t-102.5 -44t-134 -14.5z" glyph-name="S" horiz-adv-x="670" unicode="S"/>
<glyph d="M203 488h-183v212h630v-212h-183v-488h-264v488z" glyph-name="T" horiz-adv-x="670" unicode="T"/>
<glyph d="M370 -15q-75 0 -136.5 17.5t-106 53.5t-68.5 91.5t-24 132.5v420h264v-390q0 -26 2 -47t9.5 -35t21.5 -21.5t38 -7.5t38 7.5t21.5 21.5t9.5 35t2 47v390h264v-420q0 -77 -24 -132.5t-68.5 -91.5t-106 -53.5t-136.5 -17.5z" glyph-name="U" horiz-adv-x="740" unicode="U"/>
<glyph d="M2 700h280l120 -390l120 390h250l-243 -700h-264z" glyph-name="V" horiz-adv-x="774" unicode="V"/>
<glyph d="M2 700h274l74 -360l75 360h254l82 -360l87 360h234l-190 -700h-264l-93 380l-79 -380h-264z" glyph-name="W" horiz-adv-x="1084" unicode="W"/>
<glyph d="M214 362l-199 338h294l88 -164l88 164h290l-198 -335l208 -365h-296l-96 191l-96 -191h-292z" glyph-name="X" horiz-adv-x="790" unicode="X"/>
<glyph d="M250 245l-248 455h302l87 -185l79 185h272l-228 -455v-245h-264v245z" glyph-name="Y" horiz-adv-x="744" unicode="Y"/>
<glyph d="M20 182l270 306h-260v212h590v-182l-270 -306h280v-212h-610v182z" glyph-name="Z" horiz-adv-x="650" unicode="Z"/>
<glyph d="M80 700h280v-136h-100v-628h100v-136h-280v900z" glyph-name="bracketleft" horiz-adv-x="380" unicode="["/>
<glyph d="M0 700h180l320 -900h-180z" glyph-name="backslash" horiz-adv-x="500" unicode="\"/>
<glyph d="M300.01 -199.915h-279.966v135.983h99.9873v627.924h-99.9873v135.983h279.966v-899.891z" glyph-name="bracketright" horiz-adv-x="380" unicode="]"/>
<glyph d="M190 700h220l170 -260h-220l-65 110l-65 -110h-210z" glyph-name="asciicircum" unicode="^"/>
<glyph d="M0 -32h500v-136h-500v136z" glyph-name="underscore" horiz-adv-x="500" unicode="_"/>
<glyph d="M20 740h210l110 -160h-150z" glyph-name="grave" horiz-adv-x="360" unicode="`"/>
<glyph d="M190 -15q-43 0 -76.5 13t-56.5 36t-35 54t-12 67q0 79 49 125t156 46h115v14q0 26 -11 36.5t-29 10.5q-19 0 -27.5 -5.5t-12.5 -16.5h-210q2 39 18 72t47.5 57t78.5 37.5t111 13.5q56 0 103 -12t80.5 -38.5t52.5 -69.5t19 -105v-185q0 -42 2.5 -73.5t7.5 -61.5h-210 q-4 11 -7 24t-3 36q-9 -15 -21 -28.5t-29.5 -24t-41.5 -16.5t-58 -6zM275 143q55 0 55 57v10h-55q-39 0 -39 -33q0 -34 39 -34z" glyph-name="a" horiz-adv-x="580" unicode="a"/>
<glyph d="M400 -15q-36 0 -62 5.5t-45 15t-32 23.5t-22 31v-60h-204v700h220v-225q25 35 62.5 52.5t82.5 17.5q47 0 86 -17t66.5 -50.5t42.5 -84.5t15 -118v-20q0 -70 -17 -121t-45.5 -84t-66.5 -49t-81 -16zM322 163q21 0 41.5 20.5t20.5 71.5v20q0 50 -19 71t-43 21 q-26 0 -46.5 -20.5t-20.5 -66.5v-30q0 -47 21 -67t46 -20z" glyph-name="b" horiz-adv-x="625" unicode="b"/>
<glyph d="M295 -15q-64 0 -115.5 20t-88 56t-56.5 86.5t-20 112.5v20q0 58 20 106.5t56.5 84t88 55t115.5 19.5q76 0 128 -18t84.5 -50t48 -75t19.5 -92h-206q-4 32 -19 44.5t-40 12.5q-34 0 -51.5 -22.5t-17.5 -64.5v-20q0 -97 69 -97q23 0 39 12.5t20 44.5h206q-4 -55 -21 -98.5 t-50.5 -74t-85 -46.5t-123.5 -16z" glyph-name="c" horiz-adv-x="590" unicode="c"/>
<glyph d="M225 -15q-43 0 -81 16t-66.5 49t-45.5 84t-17 122v19q0 66 15.5 116.5t43.5 84.5t66.5 51.5t84.5 17.5q45 0 82.5 -17.5t62.5 -52.5v225h220v-700h-204v60q-9 -17 -22 -31t-32 -23.5t-45 -15t-62 -5.5zM303 163q25 0 46 20t21 67v30q0 46 -20.5 66.5t-46.5 20.5 q-24 0 -43 -21t-19 -71v-20q0 -51 20.5 -71.5t41.5 -20.5z" glyph-name="d" horiz-adv-x="625" unicode="d"/>
<glyph d="M310 -15q-66 0 -120 17t-93 50.5t-60.5 84t-21.5 118.5v20q0 67 20.5 118t58 84.5t90 50.5t116.5 17q146 0 215.5 -69.5t69.5 -205.5v-60h-347q4 -34 19.5 -50.5t52.5 -16.5q28 0 41 9.5t19 22.5h210q-15 -98 -83.5 -144t-186.5 -46zM305 387q-34 0 -48.5 -17.5 t-17.5 -43.5h128q-3 26 -17 43.5t-45 17.5z" glyph-name="e" unicode="e"/>
<glyph d="M70 354h-60v176h60v35q0 33 10.5 59t37.5 44.5t72.5 28.5t114.5 10q15 0 38.5 -0.5t46.5 -2.5v-138q-33 3 -47 3q-32 0 -42.5 -7.5t-10.5 -21.5v-10h90v-176h-90v-354h-220v354z" glyph-name="f" horiz-adv-x="390" unicode="f"/>
<glyph d="M295 -215q-73 0 -121.5 14.5t-78.5 39t-43.5 57.5t-16.5 69h220q5 -11 15 -16.5t35 -5.5q29 0 47 17.5t18 59.5v40q-25 -32 -62.5 -48.5t-82.5 -16.5q-43 0 -81 16t-66.5 49t-45.5 83t-17 118v19q0 63 15.5 112.5t43 83t66.5 51.5t86 18q36 0 61.5 -5.5t44.5 -15 t32 -23.5t22 -31v60h204v-485q0 -131 -69.5 -195.5t-225.5 -64.5zM303 173q25 0 46 19.5t21 63.5v30q0 42 -20.5 61.5t-46.5 19.5q-24 0 -43 -20.5t-19 -66.5v-20q0 -47 20.5 -67t41.5 -20z" glyph-name="g" horiz-adv-x="625" unicode="g"/>
<glyph d="M35 700h220v-225q18 26 53 48t92 22q85 0 130 -48t45 -142v-355h-220v310q0 26 -11 41.5t-37 15.5t-39 -15.5t-13 -41.5v-310h-220v700z" glyph-name="h" horiz-adv-x="605" unicode="h"/>
<glyph d="M40 530h220v-530h-220v530zM150 580q-60 0 -90 21.5t-30 58.5t30 58.5t90 21.5t90 -21.5t30 -58.5t-30 -58.5t-90 -21.5z" glyph-name="i" horiz-adv-x="300" unicode="i"/>
<glyph d="M24 -215q-11 0 -24.5 0.5t-24.5 2.5v178q15 -3 29 -3q17 0 26.5 12t9.5 50v505h220v-530q0 -64 -16 -105.5t-46.5 -66t-74.5 -34t-99 -9.5zM150 580q-60 0 -90 21.5t-30 58.5t30 58.5t90 21.5t90 -21.5t30 -58.5t-30 -58.5t-90 -21.5z" glyph-name="j" horiz-adv-x="300" unicode="j"/>
<glyph d="M35 700h220v-310l78 140h242l-143 -226l143 -304h-242l-54 124l-24 -40v-84h-220v700z" glyph-name="k" horiz-adv-x="577" unicode="k"/>
<glyph d="M245 -8q-56 0 -95 10t-63.5 34.5t-35.5 67t-11 108.5v488h220v-442q0 -24 2 -41t8.5 -27.5t19 -15t33.5 -4.5h8.5t8.5 1v-175q-10 -1 -25 -1.5t-29 -1t-25.5 -1t-15.5 -0.5z" glyph-name="l" horiz-adv-x="350" unicode="l"/>
<glyph d="M35 530h204v-59q18 30 52 52t93 22q54 0 83 -17.5t47 -52.5q17 28 54 49t98 21q90 0 129.5 -47.5t39.5 -137.5v-360h-220v315q0 29 -8 40.5t-26 11.5q-20 0 -28 -12t-8 -40v-315h-220v315q0 29 -8 40.5t-26 11.5q-20 0 -28 -12t-8 -40v-315h-220v530z" glyph-name="m" horiz-adv-x="865" unicode="m"/>
<glyph d="M35 530h204v-60q18 31 56.5 53t104.5 22q85 0 130 -48t45 -142v-355h-220v310q0 26 -11 41.5t-34 15.5q-29 0 -42 -15.5t-13 -41.5v-310h-220v530z" glyph-name="n" horiz-adv-x="605" unicode="n"/>
<glyph d="M305 -15q-61 0 -114 16.5t-92 50.5t-61.5 86t-22.5 122v20q0 65 22.5 114.5t61.5 83t92 50.5t114 17t114 -17t92 -50.5t61.5 -83t22.5 -114.5v-20q0 -68 -22.5 -119.5t-61.5 -86t-92 -52t-114 -17.5zM305 163q30 0 47 22t17 75v20q0 46 -17 66.5t-47 20.5t-47 -20.5 t-17 -66.5v-20q0 -53 17 -75t47 -22z" glyph-name="o" horiz-adv-x="610" unicode="o"/>
<glyph d="M35 530h204v-60q9 17 22 31t32 23.5t45 15t62 5.5q47 0 86 -17t66.5 -50.5t42.5 -84.5t15 -118v-20q0 -70 -17 -121t-45.5 -84t-66.5 -49t-81 -16q-45 0 -82.5 17.5t-62.5 52.5v-255h-220v730zM322 163q21 0 41.5 20.5t20.5 71.5v20q0 50 -19 71t-44 21q-26 0 -46 -20.5 t-20 -66.5v-30q0 -47 21 -67t46 -20z" glyph-name="p" horiz-adv-x="625" unicode="p"/>
<glyph d="M370 55q-25 -35 -62.5 -52.5t-82.5 -17.5q-43 0 -81 16t-66.5 49.5t-45.5 84.5t-17 121v19q0 66 15.5 116.5t43.5 84.5t67 51.5t85 17.5q36 0 61.5 -5.5t44.5 -15t32 -23.5t22 -31v60h204v-730h-220v255zM303 163q25 0 46 20t21 68v30q0 45 -20.5 65.5t-46.5 20.5 q-24 0 -43 -21t-19 -71v-20q0 -51 20.5 -71.5t41.5 -20.5z" glyph-name="q" horiz-adv-x="625" unicode="q"/>
<glyph d="M35 530h204v-60q10 31 37.5 53t68.5 22q12 0 25.5 -1.5t24.5 -6.5v-183q-13 6 -31 9.5t-34 3.5q-42 0 -58.5 -15t-16.5 -42v-310h-220v530z" glyph-name="r" horiz-adv-x="405" unicode="r"/>
<glyph d="M280 -15q-74 0 -123.5 16t-80 42.5t-45.5 59.5t-21 67h220q2 -11 11.5 -19t38.5 -8q32 0 41 5.5t9 17.5q0 4 -3.5 8t-14 7.5t-31 8t-53.5 10.5q-35 6 -71.5 15.5t-65.5 28t-47.5 47.5t-18.5 74q0 85 67.5 132.5t187.5 47.5q67 0 113.5 -16.5t76 -42.5t43.5 -59.5 t17 -66.5h-220q-2 16 -10.5 21.5t-24.5 5.5q-17 0 -23.5 -5t-6.5 -12q0 -6 3 -10.5t11 -8t22.5 -7t37.5 -6.5q34 -5 74 -15.5t75 -30t58.5 -50.5t23.5 -76q0 -89 -71.5 -135t-198.5 -46z" glyph-name="s" horiz-adv-x="560" unicode="s"/>
<glyph d="M285 -7q-56 0 -97 11t-67 37t-38.5 69.5t-12.5 109.5v134h-60v176h60v120h220v-120h100v-176h-100v-88q0 -26 2 -44.5t8.5 -29.5t19 -16t33.5 -5q23 0 47 3v-170q-28 -5 -59.5 -8t-55.5 -3z" glyph-name="t" horiz-adv-x="420" unicode="t"/>
<glyph d="M205 -15q-85 0 -130 48t-45 142v355h220v-310q0 -26 11 -41.5t37 -15.5t39 15.5t13 41.5v310h220v-530h-204v60q-18 -31 -56.5 -53t-104.5 -22z" glyph-name="u" horiz-adv-x="605" unicode="u"/>
<glyph d="M2 530h235l98 -280l82 280h205l-185 -530h-220z" glyph-name="v" horiz-adv-x="624" unicode="v"/>
<glyph d="M2 530h230l57 -260l68 260h160l84 -260l61 260h190l-140 -530h-220l-64 220l-56 -220h-220z" glyph-name="w" horiz-adv-x="854" unicode="w"/>
<glyph d="M142 275l-130 255h238l56 -129l53 129h233l-130 -250l140 -280h-238l-66 153l-62 -153h-234z" glyph-name="x" horiz-adv-x="604" unicode="x"/>
<glyph d="M152 -215q-15 0 -30 3v178q15 -3 30 -3q27 0 39 7.5t21 29.5l-210 530h235l94 -280l86 280h205l-190 -530q-20 -56 -44 -97t-57 -67t-76.5 -38.5t-102.5 -12.5z" glyph-name="y" horiz-adv-x="624" unicode="y"/>
<glyph d="M20 146l184 208h-174v176h460v-146l-184 -208h194v-176h-480v146z" glyph-name="z" horiz-adv-x="520" unicode="z"/>
<glyph d="M270 -200q-91 0 -140.5 49.5t-49.5 140.5v142q0 23 -13.5 36.5t-36.5 13.5v136q23 0 36.5 13.5t13.5 36.5v142q0 91 49.5 140.5t140.5 49.5h90v-136h-40q-60 0 -60 -60v-184q0 -30 -13.5 -46t-36.5 -24q23 -8 36.5 -24t13.5 -46v-184q0 -60 60 -60h40v-136h-90z" glyph-name="braceleft" horiz-adv-x="380" unicode="{"/>
<glyph d="M80 700h180v-900h-180v900z" glyph-name="bar" horiz-adv-x="340" unicode="|"/>
<glyph d="M110.033 699.976q90.9883 0 140.482 -49.4941t49.4941 -140.482v-141.983q0 -22.9971 13.498 -36.4951q13.499 -13.498 36.4961 -13.498v-135.983q-22.9971 0 -36.4961 -13.499q-13.498 -13.498 -13.498 -36.4951v-141.982q0 -90.9893 -49.4941 -140.483 t-140.482 -49.4941h-89.9893v135.983h39.9951q59.9922 0 59.9922 59.9932v183.978q0 29.9961 13.499 45.9941q13.498 15.998 36.4951 23.9971q-22.9971 7.99902 -36.4951 23.9971q-13.499 15.998 -13.499 45.9941v183.979q0 59.9922 -59.9922 59.9922h-39.9951v135.983 h89.9893z" glyph-name="braceright" horiz-adv-x="380" unicode="}"/>
<glyph d="M395 223q-30 0 -54 9.5t-44.5 20.5t-39 20.5t-37.5 9.5t-32.5 -9.5t-21.5 -20.5q-10 -13 -16 -30l-125 112q12 45 37 81q10 15 24 29.5t31.5 26t39.5 18.5t48 7q30 0 54 -9.5t44.5 -20.5t39 -20.5t37.5 -9.5t32.5 9.5t21.5 20.5q10 13 16 30l125 -112q-14 -46 -38 -81 q-21 -31 -55.5 -56t-86.5 -25z" glyph-name="asciitilde" unicode="~"/>
<glyph glyph-name="uni00A0" horiz-adv-x="200" unicode=" "/>
<glyph d="M60 270h220v-470h-220v470zM170 305q-25 0 -47 9.5t-38 25.5t-25.5 38t-9.5 47q0 26 9.5 48t25.5 38t38 25t47 9t47 -9t38 -25t25.5 -38t9.5 -48q0 -25 -9.5 -47t-25.5 -38t-38 -25.5t-47 -9.5z" glyph-name="exclamdown" horiz-adv-x="340" unicode="¡"/>
<glyph d="M198 0q-84 26 -131 94.5t-47 165.5v20q0 91 47 157.5t131 92.5v100h204v-96q46 -11 78.5 -32.5t53.5 -51t32 -65t14 -75.5h-206q-4 32 -19 44.5t-40 12.5q-34 0 -51.5 -22.5t-17.5 -64.5v-20q0 -97 69 -97q23 0 39 12.5t20 44.5h206q-6 -88 -47.5 -146t-130.5 -78v-116 h-204v120z" glyph-name="cent" horiz-adv-x="595" unicode="¢"/>
<glyph d="M20 202h80v67h-70v142h70v69q0 51 16 94t50.5 74.5t88 49t128.5 17.5q70 0 120 -17.5t82 -48.5t47.5 -74t17.5 -95h-244q0 31 -26 31t-26 -31v-69h151v-142h-151v-67h296v-202h-630v202z" glyph-name="sterling" horiz-adv-x="670" unicode="£"/>
<glyph d="M35 204l57 57q-22 44 -22 99t22 99l-57 57l109 109l57 -57q47 22 99 22t99 -22l57 57l109 -109l-57 -57q22 -47 22 -99t-22 -99l57 -57l-109 -109l-57 57q-44 -22 -99 -22t-99 22l-57 -57zM300 292q27 0 46.5 19.5t19.5 48.5t-19.5 48.5t-46.5 19.5t-46.5 -19.5 t-19.5 -48.5t19.5 -48.5t46.5 -19.5z" glyph-name="currency" unicode="¤"/>
<glyph d="M243 109h-173v142h173v38h-173v142h80l-135 269h302l67 -185l79 185h272l-135 -269h90v-142h-183v-38h183v-142h-183v-109h-264v109z" glyph-name="yen" horiz-adv-x="750" unicode="¥"/>
<glyph d="M80 170h180v-370h-180v370zM80 700h180v-370h-180v370z" glyph-name="brokenbar" horiz-adv-x="340" unicode="¦"/>
<glyph d="M330 -215q-73 0 -123.5 13.5t-82 39t-45.5 61.5t-14 81h240q0 -25 6 -33t19 -8q25 0 25 21q0 10 -5.5 18t-21 16.5t-43 18t-71.5 22.5q-91 27 -137.5 85t-46.5 130q0 53 25 100t76 79q-34 23 -50 54.5t-16 66.5q0 34 14 64t45.5 52.5t82 35.5t123.5 13t123.5 -13.5 t82 -39t45.5 -61.5t14 -81h-240q0 24 -6 32.5t-19 8.5q-25 0 -25 -21q0 -10 5.5 -18t20.5 -16t42.5 -18t72.5 -23q45 -14 79.5 -36t57.5 -50t35 -61t12 -68q0 -53 -25 -99.5t-74 -78.5q34 -24 49 -55.5t15 -66.5q0 -34 -14 -64t-45.5 -52.5t-82 -35.5t-123.5 -13zM330 194 q26 0 43 16.5t17 39.5t-17 39.5t-43 16.5t-43 -16.5t-17 -39.5t17 -39.5t43 -16.5z" glyph-name="section" horiz-adv-x="660" unicode="§"/>
<glyph d="M120 580q-42 0 -71 20.5t-29 59.5t29 59.5t71 20.5t71 -20.5t29 -59.5t-29 -59.5t-71 -20.5zM350 580q-42 0 -71 20.5t-29 59.5t29 59.5t71 20.5t71 -20.5t29 -59.5t-29.5 -59.5t-70.5 -20.5z" glyph-name="dieresis" horiz-adv-x="470" unicode="¨"/>
<glyph d="M435 -45q-85 0 -159 31t-128.5 84t-86 125t-31.5 155t31.5 155t86 125.5t128.5 84t159 30.5q84 0 158 -30.5t129 -84t86.5 -125.5t31.5 -155t-31.5 -155t-86.5 -125t-129 -84t-158 -31zM435 75q60 0 110.5 21t87.5 58t58 87t21 109q0 58 -21 108.5t-58 87.5t-87.5 58 t-110.5 21t-110.5 -21t-87.5 -58t-58 -87.5t-21 -108.5q0 -59 21 -109t58 -87t87.5 -58t110.5 -21zM435 115q-48 0 -90 12.5t-73 40t-48.5 72t-17.5 107.5v13q0 60 18 102.5t49.5 69.5t73 40t88.5 13q42 0 80.5 -10t68 -32.5t47.5 -59t19 -88.5h-167q-3 31 -17.5 41.5 t-30.5 10.5q-22 0 -38.5 -19t-16.5 -68v-13q0 -49 15 -71.5t40 -22.5q17 0 31 10t17 42h167q-1 -53 -18.5 -89.5t-47 -59t-68 -32t-81.5 -9.5z" glyph-name="copyright" horiz-adv-x="870" unicode="©"/>
<glyph d="M145 365q-38 0 -64 7.5t-42 22t-22.5 34t-6.5 43.5t9.5 44t30 34.5t54 23t81.5 8.5h55v7q0 21 -4.5 28.5t-15.5 7.5q-10 0 -14 -7t-6 -28h-170q2 31 13 54.5t33.5 39t57.5 23.5t86 8q105 0 147.5 -32.5t42.5 -97.5v-125q0 -26 2.5 -45.5t6.5 -34.5h-166q-2 8 -3.5 16 t-1.5 19q-13 -21 -39 -35.5t-64 -14.5zM204 455q16 0 26 11t10 34v8h-30q-14 0 -22 -7.5t-8 -21.5q0 -24 24 -24z" glyph-name="ordfeminine" horiz-adv-x="430" unicode="ª"/>
<glyph d="M15 177v176l220 177v-206l-75 -54l75 -54v-216zM270 177v176l220 177v-206l-75 -54l75 -54v-216z" glyph-name="guillemotleft" horiz-adv-x="525" unicode="«"/>
<glyph d="M345 254h-320v212h550v-356h-230v144z" glyph-name="logicalnot" unicode="¬"/>
<glyph d="M20 386h340v-212h-340v212z" glyph-name="uni00AD" horiz-adv-x="380" unicode="­"/>
<glyph d="M305 136q-59 0 -111 22.5t-90.5 61.5t-61 91.5t-22.5 113.5t22.5 114t61 92t90.5 61.5t111 22.5t111 -22.5t90.5 -61.5t61 -92t22.5 -114t-22.5 -113.5t-61 -91.5t-90.5 -61.5t-111 -22.5zM305 219q42 0 78.5 15.5t63 43t42 65t15.5 82.5t-15.5 82.5t-42 65t-63 43 t-78.5 15.5t-78.5 -15.5t-63 -43t-42 -65t-15.5 -82.5t15.5 -82.5t42 -65t63 -43t78.5 -15.5zM185 575h120q78 0 108.5 -26t30.5 -75q0 -35 -14 -55.5t-41 -31.5l41 -112h-108l-26 100h-8v-100h-103v300zM301 453q25 0 33 5.5t8 15.5t-8 15.5t-33 5.5h-13v-42h13z" glyph-name="registered" horiz-adv-x="610" unicode="®"/>
<glyph d="M20 723h340v-126h-340v126z" glyph-name="macron" horiz-adv-x="380" unicode="¯"/>
<glyph d="M195 355q-37 0 -70 14t-57.5 38.5t-38.5 57.5t-14 70t14 70t38.5 57.5t57.5 38.5t70 14t70 -14t57.5 -38.5t38.5 -57.5t14 -70t-14 -70t-38.5 -57.5t-57.5 -38.5t-70 -14zM195 485q21 0 35.5 14.5t14.5 35.5t-14.5 35.5t-35.5 14.5t-35.5 -14.5t-14.5 -35.5t14.5 -35.5 t35.5 -14.5z" glyph-name="degree" horiz-adv-x="390" unicode="°"/>
<glyph d="M25 212h550v-212h-550v212zM185 319h-160v212h160v169h230v-169h160v-212h-160v-54h-230v54z" glyph-name="plusminus" unicode="±"/>
<glyph d="M10 471l174 121q18 12 28 20.5t15.5 14t6.5 10t1 9.5q0 19 -20 19q-15 0 -22.5 -8.5t-7.5 -31.5h-170q0 170 195 170q98 0 146.5 -36.5t48.5 -93.5q0 -18 -4 -34t-15.5 -32.5t-33 -34.5t-56.5 -41l-23 -15h137v-128h-400v91z" glyph-name="uni00B2" horiz-adv-x="420" unicode="²"/>
<glyph d="M215 367q-56 0 -95 10.5t-63.5 31.5t-35.5 53.5t-11 77.5h160q0 -25 10.5 -34t39.5 -9q23 0 31.5 6t8.5 16q0 9 -9 15t-37 6h-24v90h24q23 0 29.5 4.5t6.5 13.5q0 8 -6.5 12.5t-28.5 4.5q-45 0 -45 -40h-160q0 88 48.5 129t156.5 41q103 0 149 -34t46 -85 q0 -39 -17.5 -57.5t-47.5 -28.5q30 -10 52.5 -33t22.5 -65q0 -27 -11 -50t-35.5 -39.5t-63.5 -26t-95 -9.5z" glyph-name="uni00B3" horiz-adv-x="430" unicode="³"/>
<glyph d="M130 740h210l-170 -160h-150z" glyph-name="acute" horiz-adv-x="360" unicode="´"/>
<glyph d="M35 530h220v-310q0 -26 11 -41.5t37 -15.5t39 15.5t13 41.5v310h220v-530h-204v60q-12 -19 -26.5 -32.5t-29.5 -22t-29.5 -12.5t-25.5 -4h-5v-189h-220v730z" glyph-name="mu" horiz-adv-x="610" unicode="µ"/>
<glyph d="M170 306q-32 8 -59.5 26.5t-47.5 44t-31.5 57t-11.5 66.5q0 41 16 77.5t43 63.5t63.5 43t77.5 16h400v-900h-180v724h-90v-724h-180v506z" glyph-name="paragraph" horiz-adv-x="665" unicode="¶"/>
<glyph d="M170 155q-25 0 -47 9.5t-38 25.5t-25.5 38t-9.5 47q0 26 9.5 48t25.5 38t38 25t47 9t47 -9t38 -25t25.5 -38t9.5 -48q0 -25 -9.5 -47t-25.5 -38t-38 -25.5t-47 -9.5z" glyph-name="periodcentered" horiz-adv-x="340" unicode="·"/>
<glyph d="M105 -215q-23 0 -38.5 1.5t-26.5 3.5q-12 2 -20 5v90q6 -2 14 -4q13 -3 36 -3q26 0 35 5t9 15q0 8 -7.5 14.5t-30.5 6.5l17 91h88l-6 -44q37 -6 56 -28t19 -53q0 -46 -32.5 -73t-112.5 -27z" glyph-name="cedilla" horiz-adv-x="270" unicode="¸"/>
<glyph d="M110 606l-100 -71v167l110 78h160v-400h-170v226z" glyph-name="uni00B9" horiz-adv-x="300" unicode="¹"/>
<glyph d="M195 365q-89 0 -137 46t-48 124v10q0 78 48 124t137 46t137 -46t48 -124v-10q0 -78 -48 -124t-137 -46zM195 495q11 0 18 8.5t7 31.5v10q0 23 -7 31.5t-18 8.5t-18 -8.5t-7 -31.5v-10q0 -23 7 -31.5t18 -8.5z" glyph-name="ordmasculine" horiz-adv-x="390" unicode="º"/>
<glyph d="M255 353v-176l-220 -177v206l75 54l-75 54v216zM510 353v-176l-220 -177v206l75 54l-75 54v216z" glyph-name="guillemotright" horiz-adv-x="525" unicode="»"/>
<glyph d="M580 700h200l-480 -700h-200zM106 527l-100 -71v167l110 78h160v-400h-170v226zM685 57h-220v102l184 242h196v-216h40v-128h-40v-56h-160v56zM685 185v94l-62 -94h62z" glyph-name="onequarter" horiz-adv-x="900" unicode="¼"/>
<glyph d="M580 700h200l-480 -700h-200zM106 527l-100 -71v167l110 78h160v-400h-170v226zM535 92l174 121q18 12 28 20.5t15.5 14t6.5 10t1 9.5q0 19 -20 19q-15 0 -22.5 -8.5t-7.5 -31.5h-170q0 170 195 170q98 0 146.5 -36.5t48.5 -93.5q0 -18 -4 -34t-15.5 -32.5t-33 -34.5 t-56.5 -41l-23 -15h137v-128h-400v91z" glyph-name="onehalf" horiz-adv-x="945" unicode="½"/>
<glyph d="M685 700h200l-480 -700h-200zM215 268q-56 0 -95 10.5t-63.5 31.5t-35.5 53.5t-11 77.5h160q0 -25 10.5 -34t39.5 -9q23 0 31.5 6t8.5 16q0 9 -9 15t-37 6h-24v90h24q23 0 29.5 4.5t6.5 13.5q0 8 -6.5 12.5t-28.5 4.5q-45 0 -45 -40h-160q0 88 48.5 129t156.5 41 q103 0 149 -34t46 -85q0 -39 -17.5 -57.5t-47.5 -28.5q30 -10 52.5 -33t22.5 -65q0 -27 -11 -50t-35.5 -39.5t-63.5 -26t-95 -9.5zM790 57h-220v102l184 242h196v-216h40v-128h-40v-56h-160v56zM790 185v94l-62 -94h62z" glyph-name="threequarters" horiz-adv-x="1005" unicode="¾"/>
<glyph d="M280 -215q-65 0 -114 15t-81.5 41.5t-48.5 62t-16 76.5q0 33 7.5 59.5t20 47.5t28 37.5t31.5 28.5q26 21 44.5 39.5t18.5 42.5v35h220v-70q0 -23 -9.5 -43.5t-23.5 -38t-31 -32t-33 -26.5q-20 -14 -33.5 -28t-13.5 -32q0 -37 34 -37t34 42h226q0 -47 -17.5 -87t-51 -69.5 t-82 -46.5t-109.5 -17zM280 305q-25 0 -47 9.5t-38 25.5t-25.5 38t-9.5 47q0 26 9.5 48t25.5 38t38 25t47 9t47 -9t38 -25t25.5 -38t9.5 -48q0 -25 -9.5 -47t-25.5 -38t-38 -25.5t-47 -9.5z" glyph-name="questiondown" horiz-adv-x="560" unicode="¿"/>
<glyph d="M453 94h-182l-25 -94h-244l248 700h264l248 -700h-284zM322 286h79l-39 174zM127 900h230l110 -150h-170z" glyph-name="Agrave" horiz-adv-x="764" unicode="À"/>
<glyph d="M453 94h-182l-25 -94h-244l248 700h264l248 -700h-284zM322 286h79l-39 174zM407 900h230l-170 -150h-170z" glyph-name="Aacute" horiz-adv-x="764" unicode="Á"/>
<glyph d="M453 94h-182l-25 -94h-244l248 700h264l248 -700h-284zM322 286h79l-39 174zM272 900h220l110 -150h-170l-50 45l-50 -45h-170z" glyph-name="Acircumflex" horiz-adv-x="764" unicode="Â"/>
<glyph d="M453 94h-182l-25 -94h-244l248 700h264l248 -700h-284zM322 286h79l-39 174zM457 730q-28 0 -48 7t-37.5 15.5t-35 15.5t-39.5 7q-14 0 -24.5 -6t-18.5 -14q-10 -9 -17 -20l-75 75q13 30 33 55q17 20 44.5 37.5t67.5 17.5q28 0 48 -6.5t37.5 -14t34.5 -13.5t40 -6 q13 0 24 5t19 12q10 8 17 18l75 -75q-13 -31 -33 -55q-17 -21 -45 -38t-67 -17z" glyph-name="Atilde" horiz-adv-x="764" unicode="Ã"/>
<glyph d="M453 94h-182l-25 -94h-244l248 700h264l248 -700h-284zM322 286h79l-39 174zM247 740q-50 0 -80 23.5t-30 61.5t30 61.5t80 23.5t80 -23.5t30 -61.5t-30 -61.5t-80 -23.5zM517 740q-50 0 -80 23.5t-30 61.5t30 61.5t80 23.5t80 -23.5t30 -61.5t-30 -61.5t-80 -23.5z" glyph-name="Adieresis" horiz-adv-x="764" unicode="Ä"/>
<glyph d="M453 94h-182l-25 -94h-244l248 700h264l248 -700h-284zM322 286h79l-39 174zM382 730q-72 0 -111 30.5t-39 84.5t39 84.5t111 30.5t111 -30.5t39 -84.5t-39 -84.5t-111 -30.5zM382 820q22 0 31 6.5t9 18.5t-9 18.5t-31 6.5t-31 -6.5t-9 -18.5t9 -18.5t31 -6.5z" glyph-name="Aring" horiz-adv-x="764" unicode="Å"/>
<glyph d="M402 700h630v-192h-286v-72h256v-162h-256v-82h286v-192h-550v94h-166l-50 -94h-264zM482 286v124l-65 -124h65z" glyph-name="AE" horiz-adv-x="1057" unicode="Æ"/>
<glyph d="M345 -215q-23 0 -38.5 1.5t-26.5 3.5q-12 2 -20 5v94q6 -2 14 -4q13 -3 36 -3q24 0 32 4t8 12q0 6 -7 11.5t-31 5.5l13 72q-66 6 -121.5 28.5t-96.5 66t-64 108.5t-23 155v20q0 93 28 159t76.5 108.5t113 62.5t137.5 20q66 0 125.5 -15.5t105.5 -51t74 -91.5t30 -137 h-260q-5 48 -27 64.5t-48 16.5q-17 0 -32 -7t-27 -23t-19 -42t-7 -64v-20q0 -76 23.5 -111t61.5 -35q27 0 48.5 16t26.5 65h260q-2 -76 -25 -129.5t-62 -88t-90.5 -52.5t-110.5 -23l-3 -21q34 -6 52.5 -28t18.5 -53q0 -46 -32.5 -73t-112.5 -27z" glyph-name="Ccedilla" horiz-adv-x="725" unicode="Ç"/>
<glyph d="M40 700h550v-192h-286v-72h256v-162h-256v-82h286v-192h-550v700zM60 900h230l110 -150h-170z" glyph-name="Egrave" horiz-adv-x="615" unicode="È"/>
<glyph d="M40 700h550v-192h-286v-72h256v-162h-256v-82h286v-192h-550v700zM340 900h230l-170 -150h-170z" glyph-name="Eacute" horiz-adv-x="615" unicode="É"/>
<glyph d="M40 700h550v-192h-286v-72h256v-162h-256v-82h286v-192h-550v700zM205 900h220l110 -150h-170l-50 45l-50 -45h-170z" glyph-name="Ecircumflex" horiz-adv-x="615" unicode="Ê"/>
<glyph d="M40 700h550v-192h-286v-72h256v-162h-256v-82h286v-192h-550v700zM180 740q-50 0 -80 23.5t-30 61.5t30 61.5t80 23.5t80 -23.5t30 -61.5t-30 -61.5t-80 -23.5zM450 740q-50 0 -80 23.5t-30 61.5t30 61.5t80 23.5t80 -23.5t30 -61.5t-30 -61.5t-80 -23.5z" glyph-name="Edieresis" horiz-adv-x="615" unicode="Ë"/>
<glyph d="M45 700h264v-700h-264v700zM-77 900h230l110 -150h-170z" glyph-name="Igrave" horiz-adv-x="354" unicode="Ì"/>
<glyph d="M45 700h264v-700h-264v700zM202 900h230l-170 -150h-170z" glyph-name="Iacute" horiz-adv-x="354" unicode="Í"/>
<glyph d="M45 700h264v-700h-264v700zM68 900h220l110 -150h-170l-50 45l-50 -45h-170z" glyph-name="Icircumflex" horiz-adv-x="354" unicode="Î"/>
<glyph d="M45 700h264v-700h-264v700zM43 740q-50 0 -80 23.5t-30 61.5t30 61.5t80 23.5t80 -23.5t30 -61.5t-30 -61.5t-80 -23.5zM313 740q-50 0 -80 23.5t-30 61.5t30 61.5t80 23.5t80 -23.5t30 -61.5t-30 -61.5t-80 -23.5z" glyph-name="Idieresis" horiz-adv-x="354" unicode="Ï"/>
<glyph d="M90 254h-80v192h80v254h315q79 0 142.5 -21.5t108.5 -63.5t69.5 -105t24.5 -145v-20q0 -84 -25 -148.5t-71.5 -108t-112 -66t-146.5 -22.5h-305v254zM395 212q19 0 34.5 6t27 21t17.5 41t6 65v20q0 71 -21 97t-64 26h-41v-42h66v-192h-66v-42h41z" glyph-name="Eth" horiz-adv-x="770" unicode="Ð"/>
<glyph d="M40 700h214l222 -290v290h244v-700h-214l-222 290v-290h-244v700zM455 730q-28 0 -48 7t-37.5 15.5t-35 15.5t-39.5 7q-14 0 -24.5 -6t-18.5 -14q-10 -9 -17 -20l-75 75q13 30 33 55q17 20 44.5 37.5t67.5 17.5q28 0 48 -6.5t37.5 -14t34.5 -13.5t40 -6q13 0 24 5t19 12 q10 8 17 18l75 -75q-13 -31 -33 -55q-17 -21 -45 -38t-67 -17z" glyph-name="Ntilde" horiz-adv-x="760" unicode="Ñ"/>
<glyph d="M380 -15q-74 0 -139.5 21t-114.5 64.5t-77.5 111.5t-28.5 163v20q0 90 28.5 155.5t77.5 109t114.5 64.5t139.5 21t139.5 -21t114.5 -64.5t77.5 -109t28.5 -155.5v-20q0 -93 -28.5 -161t-77.5 -112.5t-114.5 -65.5t-139.5 -21zM380 199q42 0 66 33.5t24 112.5v20 q0 72 -24 104t-66 32t-66 -32t-24 -104v-20q0 -79 24 -112.5t66 -33.5zM125 900h230l110 -150h-170z" glyph-name="Ograve" horiz-adv-x="760" unicode="Ò"/>
<glyph d="M380 -15q-74 0 -139.5 21t-114.5 64.5t-77.5 111.5t-28.5 163v20q0 90 28.5 155.5t77.5 109t114.5 64.5t139.5 21t139.5 -21t114.5 -64.5t77.5 -109t28.5 -155.5v-20q0 -93 -28.5 -161t-77.5 -112.5t-114.5 -65.5t-139.5 -21zM380 199q42 0 66 33.5t24 112.5v20 q0 72 -24 104t-66 32t-66 -32t-24 -104v-20q0 -79 24 -112.5t66 -33.5zM405 900h230l-170 -150h-170z" glyph-name="Oacute" horiz-adv-x="760" unicode="Ó"/>
<glyph d="M380 -15q-74 0 -139.5 21t-114.5 64.5t-77.5 111.5t-28.5 163v20q0 90 28.5 155.5t77.5 109t114.5 64.5t139.5 21t139.5 -21t114.5 -64.5t77.5 -109t28.5 -155.5v-20q0 -93 -28.5 -161t-77.5 -112.5t-114.5 -65.5t-139.5 -21zM380 199q42 0 66 33.5t24 112.5v20 q0 72 -24 104t-66 32t-66 -32t-24 -104v-20q0 -79 24 -112.5t66 -33.5zM270 900h220l110 -150h-170l-50 45l-50 -45h-170z" glyph-name="Ocircumflex" horiz-adv-x="760" unicode="Ô"/>
<glyph d="M380 -15q-74 0 -139.5 21t-114.5 64.5t-77.5 111.5t-28.5 163v20q0 90 28.5 155.5t77.5 109t114.5 64.5t139.5 21t139.5 -21t114.5 -64.5t77.5 -109t28.5 -155.5v-20q0 -93 -28.5 -161t-77.5 -112.5t-114.5 -65.5t-139.5 -21zM380 199q42 0 66 33.5t24 112.5v20 q0 72 -24 104t-66 32t-66 -32t-24 -104v-20q0 -79 24 -112.5t66 -33.5zM455 730q-28 0 -48 7t-37.5 15.5t-35 15.5t-39.5 7q-14 0 -24.5 -6t-18.5 -14q-10 -9 -17 -20l-75 75q13 30 33 55q17 20 44.5 37.5t67.5 17.5q28 0 48 -6.5t37.5 -14t34.5 -13.5t40 -6q13 0 24 5 t19 12q10 8 17 18l75 -75q-13 -31 -33 -55q-17 -21 -45 -38t-67 -17z" glyph-name="Otilde" horiz-adv-x="760" unicode="Õ"/>
<glyph d="M380 -15q-74 0 -139.5 21t-114.5 64.5t-77.5 111.5t-28.5 163v20q0 90 28.5 155.5t77.5 109t114.5 64.5t139.5 21t139.5 -21t114.5 -64.5t77.5 -109t28.5 -155.5v-20q0 -93 -28.5 -161t-77.5 -112.5t-114.5 -65.5t-139.5 -21zM380 199q42 0 66 33.5t24 112.5v20 q0 72 -24 104t-66 32t-66 -32t-24 -104v-20q0 -79 24 -112.5t66 -33.5zM245 740q-50 0 -80 23.5t-30 61.5t30 61.5t80 23.5t80 -23.5t30 -61.5t-30 -61.5t-80 -23.5zM515 740q-50 0 -80 23.5t-30 61.5t30 61.5t80 23.5t80 -23.5t30 -61.5t-30 -61.5t-80 -23.5z" glyph-name="Odieresis" horiz-adv-x="760" unicode="Ö"/>
<glyph d="M30 234l126 126l-126 126l144 144l126 -126l126 126l144 -144l-126 -126l126 -126l-144 -144l-126 126l-126 -126z" glyph-name="multiply" unicode="×"/>
<glyph d="M380 -15q-53 0 -102.5 12t-93.5 38l-42 -50l-82 71l40 48q-38 44 -59 104t-21 137v20q0 90 28.5 155.5t77.5 109t114.5 64.5t139.5 21q53 0 102.5 -12.5t92.5 -37.5l43 50l82 -70l-41 -49q38 -43 59.5 -100.5t21.5 -130.5v-20q0 -93 -28.5 -161t-77.5 -112.5 t-114.5 -65.5t-139.5 -21zM380 189q48 0 74 35.5t26 120.5v20v9t-1 9l-153 -180q21 -14 54 -14zM380 511q-48 0 -74 -34t-26 -112v-20v-14t1 -14l152 180q-23 14 -53 14z" glyph-name="Oslash" horiz-adv-x="760" unicode="Ø"/>
<glyph d="M370 -15q-75 0 -136.5 17.5t-106 53.5t-68.5 91.5t-24 132.5v420h264v-390q0 -26 2 -47t9.5 -35t21.5 -21.5t38 -7.5t38 7.5t21.5 21.5t9.5 35t2 47v390h264v-420q0 -77 -24 -132.5t-68.5 -91.5t-106 -53.5t-136.5 -17.5zM115 900h230l110 -150h-170z" glyph-name="Ugrave" horiz-adv-x="740" unicode="Ù"/>
<glyph d="M370 -15q-75 0 -136.5 17.5t-106 53.5t-68.5 91.5t-24 132.5v420h264v-390q0 -26 2 -47t9.5 -35t21.5 -21.5t38 -7.5t38 7.5t21.5 21.5t9.5 35t2 47v390h264v-420q0 -77 -24 -132.5t-68.5 -91.5t-106 -53.5t-136.5 -17.5zM395 900h230l-170 -150h-170z" glyph-name="Uacute" horiz-adv-x="740" unicode="Ú"/>
<glyph d="M370 -15q-75 0 -136.5 17.5t-106 53.5t-68.5 91.5t-24 132.5v420h264v-390q0 -26 2 -47t9.5 -35t21.5 -21.5t38 -7.5t38 7.5t21.5 21.5t9.5 35t2 47v390h264v-420q0 -77 -24 -132.5t-68.5 -91.5t-106 -53.5t-136.5 -17.5zM260 900h220l110 -150h-170l-50 45l-50 -45h-170 z" glyph-name="Ucircumflex" horiz-adv-x="740" unicode="Û"/>
<glyph d="M370 -15q-75 0 -136.5 17.5t-106 53.5t-68.5 91.5t-24 132.5v420h264v-390q0 -26 2 -47t9.5 -35t21.5 -21.5t38 -7.5t38 7.5t21.5 21.5t9.5 35t2 47v390h264v-420q0 -77 -24 -132.5t-68.5 -91.5t-106 -53.5t-136.5 -17.5zM235 740q-50 0 -80 23.5t-30 61.5t30 61.5 t80 23.5t80 -23.5t30 -61.5t-30 -61.5t-80 -23.5zM505 740q-50 0 -80 23.5t-30 61.5t30 61.5t80 23.5t80 -23.5t30 -61.5t-30 -61.5t-80 -23.5z" glyph-name="Udieresis" horiz-adv-x="740" unicode="Ü"/>
<glyph d="M250 245l-248 455h302l87 -185l79 185h272l-228 -455v-245h-264v245zM412 900h230l-170 -150h-170z" glyph-name="Yacute" horiz-adv-x="744" unicode="Ý"/>
<glyph d="M40 700h264v-87h61q161 0 233 -65.5t72 -187.5t-72 -187.5t-233 -65.5h-61v-107h-264v700zM334 299q41 0 56.5 18t15.5 43t-16 43t-56 18h-30v-122h30z" glyph-name="Thorn" horiz-adv-x="685" unicode="Þ"/>
<glyph d="M40 460q0 58 17 105t52 80.5t87.5 51.5t123.5 18q75 0 127 -14t83.5 -39.5t45.5 -60.5t14 -76q0 -112 -100 -141q38 -6 65 -23t43.5 -40.5t24 -51t7.5 -54.5v-10q0 -47 -13.5 -85.5t-46 -67t-86 -44t-134.5 -15.5q-11 0 -25 0.5t-25 2.5v178q11 -2 25 -2.5t25 -0.5 q29 0 44.5 15t15.5 43v10q0 26 -16.5 42t-48.5 16h-40v156h15q22 0 33 11.5t11 30.5q0 20 -11 31t-33 11q-32 0 -46 -17.5t-14 -59.5v-460h-220v460z" glyph-name="germandbls" horiz-adv-x="655" unicode="ß"/>
<glyph d="M190 -15q-43 0 -76.5 13t-56.5 36t-35 54t-12 67q0 79 49 125t156 46h115v14q0 26 -11 36.5t-29 10.5q-19 0 -27.5 -5.5t-12.5 -16.5h-210q2 39 18 72t47.5 57t78.5 37.5t111 13.5q56 0 103 -12t80.5 -38.5t52.5 -69.5t19 -105v-185q0 -42 2.5 -73.5t7.5 -61.5h-210 q-4 11 -7 24t-3 36q-9 -15 -21 -28.5t-29.5 -24t-41.5 -16.5t-58 -6zM275 143q55 0 55 57v10h-55q-39 0 -39 -33q0 -34 39 -34zM50 740h210l110 -160h-150z" glyph-name="agrave" horiz-adv-x="580" unicode="à"/>
<glyph d="M190 -15q-43 0 -76.5 13t-56.5 36t-35 54t-12 67q0 79 49 125t156 46h115v14q0 26 -11 36.5t-29 10.5q-19 0 -27.5 -5.5t-12.5 -16.5h-210q2 39 18 72t47.5 57t78.5 37.5t111 13.5q56 0 103 -12t80.5 -38.5t52.5 -69.5t19 -105v-185q0 -42 2.5 -73.5t7.5 -61.5h-210 q-4 11 -7 24t-3 36q-9 -15 -21 -28.5t-29.5 -24t-41.5 -16.5t-58 -6zM275 143q55 0 55 57v10h-55q-39 0 -39 -33q0 -34 39 -34zM330 740h210l-170 -160h-150z" glyph-name="aacute" horiz-adv-x="580" unicode="á"/>
<glyph d="M190 -15q-43 0 -76.5 13t-56.5 36t-35 54t-12 67q0 79 49 125t156 46h115v14q0 26 -11 36.5t-29 10.5q-19 0 -27.5 -5.5t-12.5 -16.5h-210q2 39 18 72t47.5 57t78.5 37.5t111 13.5q56 0 103 -12t80.5 -38.5t52.5 -69.5t19 -105v-185q0 -42 2.5 -73.5t7.5 -61.5h-210 q-4 11 -7 24t-3 36q-9 -15 -21 -28.5t-29.5 -24t-41.5 -16.5t-58 -6zM275 143q55 0 55 57v10h-55q-39 0 -39 -33q0 -34 39 -34zM195 740h200l110 -160h-150l-60 57l-60 -57h-150z" glyph-name="acircumflex" horiz-adv-x="580" unicode="â"/>
<glyph d="M190 -15q-43 0 -76.5 13t-56.5 36t-35 54t-12 67q0 79 49 125t156 46h115v14q0 26 -11 36.5t-29 10.5q-19 0 -27.5 -5.5t-12.5 -16.5h-210q2 39 18 72t47.5 57t78.5 37.5t111 13.5q56 0 103 -12t80.5 -38.5t52.5 -69.5t19 -105v-185q0 -42 2.5 -73.5t7.5 -61.5h-210 q-4 11 -7 24t-3 36q-9 -15 -21 -28.5t-29.5 -24t-41.5 -16.5t-58 -6zM275 143q55 0 55 57v10h-55q-39 0 -39 -33q0 -34 39 -34zM360 575q-24 0 -42 7t-33.5 15.5t-30.5 15.5t-34 7q-14 0 -23 -6t-15 -14q-7 -9 -12 -20l-75 65q13 28 32 50q17 19 42 34.5t61 15.5q24 0 42 -7 t33.5 -15.5t30.5 -15.5t34 -7q13 0 22.5 6t15.5 14q7 9 12 20l75 -65q-13 -28 -32 -50q-17 -19 -42.5 -34.5t-60.5 -15.5z" glyph-name="atilde" horiz-adv-x="580" unicode="ã"/>
<glyph d="M190 -15q-43 0 -76.5 13t-56.5 36t-35 54t-12 67q0 79 49 125t156 46h115v14q0 26 -11 36.5t-29 10.5q-19 0 -27.5 -5.5t-12.5 -16.5h-210q2 39 18 72t47.5 57t78.5 37.5t111 13.5q56 0 103 -12t80.5 -38.5t52.5 -69.5t19 -105v-185q0 -42 2.5 -73.5t7.5 -61.5h-210 q-4 11 -7 24t-3 36q-9 -15 -21 -28.5t-29.5 -24t-41.5 -16.5t-58 -6zM275 143q55 0 55 57v10h-55q-39 0 -39 -33q0 -34 39 -34zM180 580q-42 0 -71 20.5t-29 59.5t29 59.5t71 20.5t71 -20.5t29 -59.5t-29 -59.5t-71 -20.5zM410 580q-42 0 -71 20.5t-29 59.5t29 59.5t71 20.5 t71 -20.5t29 -59.5t-29.5 -59.5t-70.5 -20.5z" glyph-name="adieresis" horiz-adv-x="580" unicode="ä"/>
<glyph d="M190 -15q-43 0 -76.5 13t-56.5 36t-35 54t-12 67q0 79 49 125t156 46h115v14q0 26 -11 36.5t-29 10.5q-19 0 -27.5 -5.5t-12.5 -16.5h-210q2 39 18 72t47.5 57t78.5 37.5t111 13.5q56 0 103 -12t80.5 -38.5t52.5 -69.5t19 -105v-185q0 -42 2.5 -73.5t7.5 -61.5h-210 q-4 11 -7 24t-3 36q-9 -15 -21 -28.5t-29.5 -24t-41.5 -16.5t-58 -6zM275 143q55 0 55 57v10h-55q-39 0 -39 -33q0 -34 39 -34zM295 565q-68 0 -106.5 30.5t-38.5 84.5t38.5 84.5t106.5 30.5t106.5 -30.5t38.5 -84.5t-38.5 -84.5t-106.5 -30.5zM295 653q37 0 37 27t-37 27 t-37 -27t37 -27z" glyph-name="aring" horiz-adv-x="580" unicode="å"/>
<glyph d="M210 -15q-47 0 -84 13t-63 36t-39.5 54t-13.5 67q0 79 49 125t156 46h115v12q0 28 -11 38.5t-29 10.5q-19 0 -27.5 -5.5t-12.5 -16.5h-210q2 39 18 72t46.5 57t75.5 37.5t105 13.5q64 0 104 -13.5t66 -36.5q35 26 77 38t93 12q139 0 207 -69.5t68 -204.5v-61h-347 q4 -34 19.5 -50.5t52.5 -16.5q28 0 41 9.5t19 22.5h210q-15 -98 -82.5 -144t-177.5 -46q-29 0 -58 5.5t-56 15t-49 24t-37 32.5q-19 -18 -40.5 -32t-48.5 -24t-60.5 -15.5t-75.5 -5.5zM275 143q55 0 55 57v10h-55q-39 0 -39 -33q0 -34 39 -34zM620 387q-34 0 -47.5 -16.5 t-18.5 -44.5h128q-3 26 -16.5 43.5t-45.5 17.5z" glyph-name="ae" horiz-adv-x="915" unicode="æ"/>
<glyph d="M265 -215q-23 0 -38.5 1.5t-26.5 3.5q-12 2 -20 5v90q6 -2 14 -4q13 -3 36 -3q26 0 35 5t9 15q0 8 -7.5 14.5t-30.5 6.5l13 69q-54 7 -97.5 29t-73.5 57.5t-46.5 82.5t-16.5 103v20q0 58 20 106.5t56.5 84t88 55t115.5 19.5q76 0 128 -18t84.5 -50t48 -75t19.5 -92h-206 q-4 32 -19 44.5t-40 12.5q-34 0 -51.5 -22.5t-17.5 -64.5v-20q0 -97 69 -97q23 0 39 12.5t20 44.5h206q-3 -51 -18 -92t-43.5 -71t-72 -48t-103.5 -22l-3 -21q37 -6 56 -28t19 -53q0 -46 -32.5 -73t-112.5 -27z" glyph-name="ccedilla" horiz-adv-x="590" unicode="ç"/>
<glyph d="M310 -15q-66 0 -120 17t-93 50.5t-60.5 84t-21.5 118.5v20q0 67 20.5 118t58 84.5t90 50.5t116.5 17q146 0 215.5 -69.5t69.5 -205.5v-60h-347q4 -34 19.5 -50.5t52.5 -16.5q28 0 41 9.5t19 22.5h210q-15 -98 -83.5 -144t-186.5 -46zM305 387q-34 0 -48.5 -17.5 t-17.5 -43.5h128q-3 26 -17 43.5t-45 17.5zM55 740h210l110 -160h-150z" glyph-name="egrave" unicode="è"/>
<glyph d="M310 -15q-66 0 -120 17t-93 50.5t-60.5 84t-21.5 118.5v20q0 67 20.5 118t58 84.5t90 50.5t116.5 17q146 0 215.5 -69.5t69.5 -205.5v-60h-347q4 -34 19.5 -50.5t52.5 -16.5q28 0 41 9.5t19 22.5h210q-15 -98 -83.5 -144t-186.5 -46zM305 387q-34 0 -48.5 -17.5 t-17.5 -43.5h128q-3 26 -17 43.5t-45 17.5zM335 740h210l-170 -160h-150z" glyph-name="eacute" unicode="é"/>
<glyph d="M310 -15q-66 0 -120 17t-93 50.5t-60.5 84t-21.5 118.5v20q0 67 20.5 118t58 84.5t90 50.5t116.5 17q146 0 215.5 -69.5t69.5 -205.5v-60h-347q4 -34 19.5 -50.5t52.5 -16.5q28 0 41 9.5t19 22.5h210q-15 -98 -83.5 -144t-186.5 -46zM305 387q-34 0 -48.5 -17.5 t-17.5 -43.5h128q-3 26 -17 43.5t-45 17.5zM200 740h200l110 -160h-150l-60 57l-60 -57h-150z" glyph-name="ecircumflex" unicode="ê"/>
<glyph d="M310 -15q-66 0 -120 17t-93 50.5t-60.5 84t-21.5 118.5v20q0 67 20.5 118t58 84.5t90 50.5t116.5 17q146 0 215.5 -69.5t69.5 -205.5v-60h-347q4 -34 19.5 -50.5t52.5 -16.5q28 0 41 9.5t19 22.5h210q-15 -98 -83.5 -144t-186.5 -46zM305 387q-34 0 -48.5 -17.5 t-17.5 -43.5h128q-3 26 -17 43.5t-45 17.5zM185 580q-42 0 -71 20.5t-29 59.5t29 59.5t71 20.5t71 -20.5t29 -59.5t-29 -59.5t-71 -20.5zM415 580q-42 0 -71 20.5t-29 59.5t29 59.5t71 20.5t71 -20.5t29 -59.5t-29.5 -59.5t-70.5 -20.5z" glyph-name="edieresis" unicode="ë"/>
<glyph d="M40 530h220v-530h-220v530zM-94 740h210l110 -160h-150z" glyph-name="igrave" horiz-adv-x="300" unicode="ì"/>
<glyph d="M40 530h220v-530h-220v530zM185 740h210l-170 -160h-150z" glyph-name="iacute" horiz-adv-x="300" unicode="í"/>
<glyph d="M40 530h220v-530h-220v530zM51 740h200l110 -160h-150l-60 57l-60 -57h-150z" glyph-name="icircumflex" horiz-adv-x="300" unicode="î"/>
<glyph d="M40 530h220v-530h-220v530zM36 580q-42 0 -71 20.5t-29 59.5t29 59.5t71 20.5t71 -20.5t29 -59.5t-29 -59.5t-71 -20.5zM266 580q-42 0 -71 20.5t-29 59.5t29 59.5t71 20.5t71 -20.5t29 -59.5t-29.5 -59.5t-70.5 -20.5z" glyph-name="idieresis" horiz-adv-x="300" unicode="ï"/>
<glyph d="M310 -15q-64 0 -118 17t-93.5 51t-61.5 83t-22 114v20q0 61 22 108.5t59.5 80t87.5 49.5t106 17q40 0 74 -10q-32 38 -83 64l-22 -43l-81 39l20 38q-21 8 -44 14.5t-49 13.5l52 129q59 -14 107 -30l25 48l81 -39l-23 -43q72 -35 121.5 -78.5t80 -95t43.5 -110t13 -122.5 v-20q0 -76 -22 -131.5t-61.5 -92t-93.5 -54t-118 -17.5zM310 163q29 0 49 21t20 61v20q0 40 -19.5 61t-49.5 21t-49.5 -21t-19.5 -61v-20q0 -40 19.5 -61t49.5 -21z" glyph-name="eth" horiz-adv-x="625" unicode="ð"/>
<glyph d="M35 530h204v-60q18 31 56.5 53t104.5 22q85 0 130 -48t45 -142v-355h-220v310q0 26 -11 41.5t-34 15.5q-29 0 -42 -15.5t-13 -41.5v-310h-220v530zM370 575q-24 0 -42 7t-33.5 15.5t-30.5 15.5t-34 7q-14 0 -23 -6t-15 -14q-7 -9 -12 -20l-75 65q13 28 32 50 q17 19 42 34.5t61 15.5q24 0 42 -7t33.5 -15.5t30.5 -15.5t34 -7q13 0 22.5 6t15.5 14q7 9 12 20l75 -65q-13 -28 -32 -50q-17 -19 -42.5 -34.5t-60.5 -15.5z" glyph-name="ntilde" horiz-adv-x="605" unicode="ñ"/>
<glyph d="M305 -15q-61 0 -114 16.5t-92 50.5t-61.5 86t-22.5 122v20q0 65 22.5 114.5t61.5 83t92 50.5t114 17t114 -17t92 -50.5t61.5 -83t22.5 -114.5v-20q0 -68 -22.5 -119.5t-61.5 -86t-92 -52t-114 -17.5zM305 163q30 0 47 22t17 75v20q0 46 -17 66.5t-47 20.5t-47 -20.5 t-17 -66.5v-20q0 -53 17 -75t47 -22zM60 740h210l110 -160h-150z" glyph-name="ograve" horiz-adv-x="610" unicode="ò"/>
<glyph d="M305 -15q-61 0 -114 16.5t-92 50.5t-61.5 86t-22.5 122v20q0 65 22.5 114.5t61.5 83t92 50.5t114 17t114 -17t92 -50.5t61.5 -83t22.5 -114.5v-20q0 -68 -22.5 -119.5t-61.5 -86t-92 -52t-114 -17.5zM305 163q30 0 47 22t17 75v20q0 46 -17 66.5t-47 20.5t-47 -20.5 t-17 -66.5v-20q0 -53 17 -75t47 -22zM340 740h210l-170 -160h-150z" glyph-name="oacute" horiz-adv-x="610" unicode="ó"/>
<glyph d="M305 -15q-61 0 -114 16.5t-92 50.5t-61.5 86t-22.5 122v20q0 65 22.5 114.5t61.5 83t92 50.5t114 17t114 -17t92 -50.5t61.5 -83t22.5 -114.5v-20q0 -68 -22.5 -119.5t-61.5 -86t-92 -52t-114 -17.5zM305 163q30 0 47 22t17 75v20q0 46 -17 66.5t-47 20.5t-47 -20.5 t-17 -66.5v-20q0 -53 17 -75t47 -22zM205 740h200l110 -160h-150l-60 57l-60 -57h-150z" glyph-name="ocircumflex" horiz-adv-x="610" unicode="ô"/>
<glyph d="M305 -15q-61 0 -114 16.5t-92 50.5t-61.5 86t-22.5 122v20q0 65 22.5 114.5t61.5 83t92 50.5t114 17t114 -17t92 -50.5t61.5 -83t22.5 -114.5v-20q0 -68 -22.5 -119.5t-61.5 -86t-92 -52t-114 -17.5zM305 163q30 0 47 22t17 75v20q0 46 -17 66.5t-47 20.5t-47 -20.5 t-17 -66.5v-20q0 -53 17 -75t47 -22zM370 575q-24 0 -42 7t-33.5 15.5t-30.5 15.5t-34 7q-14 0 -23 -6t-15 -14q-7 -9 -12 -20l-75 65q13 28 32 50q17 19 42 34.5t61 15.5q24 0 42 -7t33.5 -15.5t30.5 -15.5t34 -7q13 0 22.5 6t15.5 14q7 9 12 20l75 -65q-13 -28 -32 -50 q-17 -19 -42.5 -34.5t-60.5 -15.5z" glyph-name="otilde" horiz-adv-x="610" unicode="õ"/>
<glyph d="M305 -15q-61 0 -114 16.5t-92 50.5t-61.5 86t-22.5 122v20q0 65 22.5 114.5t61.5 83t92 50.5t114 17t114 -17t92 -50.5t61.5 -83t22.5 -114.5v-20q0 -68 -22.5 -119.5t-61.5 -86t-92 -52t-114 -17.5zM305 163q30 0 47 22t17 75v20q0 46 -17 66.5t-47 20.5t-47 -20.5 t-17 -66.5v-20q0 -53 17 -75t47 -22zM190 580q-42 0 -71 20.5t-29 59.5t29 59.5t71 20.5t71 -20.5t29 -59.5t-29 -59.5t-71 -20.5zM420 580q-42 0 -71 20.5t-29 59.5t29 59.5t71 20.5t71 -20.5t29 -59.5t-29.5 -59.5t-70.5 -20.5z" glyph-name="odieresis" horiz-adv-x="610" unicode="ö"/>
<glyph d="M25 466h550v-212h-550v212zM300 -5q-25 0 -47 9.5t-38 25.5t-25.5 38t-9.5 47q0 26 9.5 48t25.5 38t38 25t47 9t47 -9t38 -25t25.5 -38t9.5 -48q0 -25 -9.5 -47t-25.5 -38t-38 -25.5t-47 -9.5zM300 485q-25 0 -47 9.5t-38 25.5t-25.5 38t-9.5 47q0 26 9.5 48t25.5 38 t38 25t47 9t47 -9t38 -25t25.5 -38t9.5 -48q0 -25 -9.5 -47t-25.5 -38t-38 -25.5t-47 -9.5z" glyph-name="divide" unicode="÷"/>
<glyph d="M305 -15q-87 0 -157 34l-30 -34l-68 60l26 30q-29 33 -45 79t-16 106v20q0 65 22.5 114.5t61.5 83t92 50.5t114 17q88 0 156 -35l31 35l68 -60l-26 -30q29 -32 45 -76t16 -99v-20q0 -68 -22.5 -119.5t-61.5 -86t-92 -52t-114 -17.5zM305 153q35 0 54.5 24t19.5 78v20v5 l-107 -121q13 -6 33 -6zM305 377q-35 0 -54.5 -23.5t-19.5 -78.5v-20v-5l107 121q-15 6 -33 6z" glyph-name="oslash" horiz-adv-x="610" unicode="ø"/>
<glyph d="M205 -15q-85 0 -130 48t-45 142v355h220v-310q0 -26 11 -41.5t37 -15.5t39 15.5t13 41.5v310h220v-530h-204v60q-18 -31 -56.5 -53t-104.5 -22zM55 740h210l110 -160h-150z" glyph-name="ugrave" horiz-adv-x="605" unicode="ù"/>
<glyph d="M205 -15q-85 0 -130 48t-45 142v355h220v-310q0 -26 11 -41.5t37 -15.5t39 15.5t13 41.5v310h220v-530h-204v60q-18 -31 -56.5 -53t-104.5 -22zM335 740h210l-170 -160h-150z" glyph-name="uacute" horiz-adv-x="605" unicode="ú"/>
<glyph d="M205 -15q-85 0 -130 48t-45 142v355h220v-310q0 -26 11 -41.5t37 -15.5t39 15.5t13 41.5v310h220v-530h-204v60q-18 -31 -56.5 -53t-104.5 -22zM200 740h200l110 -160h-150l-60 57l-60 -57h-150z" glyph-name="ucircumflex" horiz-adv-x="605" unicode="û"/>
<glyph d="M205 -15q-85 0 -130 48t-45 142v355h220v-310q0 -26 11 -41.5t37 -15.5t39 15.5t13 41.5v310h220v-530h-204v60q-18 -31 -56.5 -53t-104.5 -22zM185 580q-42 0 -71 20.5t-29 59.5t29 59.5t71 20.5t71 -20.5t29 -59.5t-29 -59.5t-71 -20.5zM415 580q-42 0 -71 20.5 t-29 59.5t29 59.5t71 20.5t71 -20.5t29 -59.5t-29.5 -59.5t-70.5 -20.5z" glyph-name="udieresis" horiz-adv-x="605" unicode="ü"/>
<glyph d="M152 -215q-15 0 -30 3v178q15 -3 30 -3q27 0 39 7.5t21 29.5l-210 530h235l94 -280l86 280h205l-190 -530q-20 -56 -44 -97t-57 -67t-76.5 -38.5t-102.5 -12.5zM362 740h210l-170 -160h-150z" glyph-name="yacute" horiz-adv-x="624" unicode="ý"/>
<glyph d="M35 700h220v-225q25 35 62.5 52.5t82.5 17.5q47 0 86 -17t66.5 -50.5t42.5 -84.5t15 -118v-20q0 -70 -17 -121t-45.5 -84t-66.5 -49t-81 -16q-45 0 -82.5 17.5t-62.5 52.5v-255h-220v900zM322 163q21 0 41.5 20.5t20.5 71.5v20q0 50 -19 71t-44 21q-26 0 -46 -20.5 t-20 -66.5v-30q0 -47 21 -67t46 -20z" glyph-name="thorn" horiz-adv-x="625" unicode="þ"/>
<glyph d="M40 530h220v-530h-220v530z" glyph-name="dotlessi" horiz-adv-x="300" unicode="ı"/>
<glyph d="M24 -215q-11 0 -24.5 0.5t-24.5 2.5v178q15 -3 29 -3q17 0 26.5 12t9.5 50v505h220v-530q0 -64 -16 -105.5t-46.5 -66t-74.5 -34t-99 -9.5z" glyph-name="uni0237" horiz-adv-x="300" unicode="ȷ"/>
<glyph d="M130 740h200l110 -160h-150l-60 57l-60 -57h-150z" glyph-name="circumflex" horiz-adv-x="460" unicode="ˆ"/>
<glyph d="M140 580q-60 0 -90 21.5t-30 58.5t30 58.5t90 21.5t90 -21.5t30 -58.5t-30 -58.5t-90 -21.5z" glyph-name="dotaccent" horiz-adv-x="280" unicode="˙"/>
<glyph d="M165 565q-68 0 -106.5 30.5t-38.5 84.5t38.5 84.5t106.5 30.5t106.5 -30.5t38.5 -84.5t-38.5 -84.5t-106.5 -30.5zM165 653q37 0 37 27t-37 27t-37 -27t37 -27z" glyph-name="ring" horiz-adv-x="330" unicode="˚"/>
<glyph d="M285 575q-24 0 -42 7t-33.5 15.5t-30.5 15.5t-34 7q-14 0 -23 -6t-15 -14q-7 -9 -12 -20l-75 65q13 28 32 50q17 19 42 34.5t61 15.5q24 0 42 -7t33.5 -15.5t30.5 -15.5t34 -7q13 0 22.5 6t15.5 14q7 9 12 20l75 -65q-13 -28 -32 -50q-17 -19 -42.5 -34.5t-60.5 -15.5z " glyph-name="tilde" horiz-adv-x="440" unicode="˜"/>
<glyph d="M15 177v176l220 177v-206l-75 -54l75 -54v-216z" glyph-name="guilsinglleft" horiz-adv-x="270" unicode="‹"/>
<glyph d="M255 353v-176l-220 -177v206l75 54l-75 54v216z" glyph-name="guilsinglright" horiz-adv-x="270" unicode="›"/>
<glyph d="M230 700h200l-480 -700h-200z" glyph-name="fraction" horiz-adv-x="180" unicode="⁄"/>
<glyph d="M230 436h-220v102l184 242h196v-216h40v-128h-40v-56h-160v56zM230 564v94l-62 -94h62z" glyph-name="uni2074" horiz-adv-x="445" unicode="⁴"/>
<glyph d="M130 900h220l110 -150h-170l-50 45l-50 -45h-170z" glyph-name="uniF408" horiz-adv-x="480" unicode=""/>
<glyph d="M170 730q-72 0 -111 30.5t-39 84.5t39 84.5t111 30.5t111 -30.5t39 -84.5t-39 -84.5t-111 -30.5zM170 820q22 0 31 6.5t9 18.5t-9 18.5t-31 6.5t-31 -6.5t-9 -18.5t9 -18.5t31 -6.5z" glyph-name="uniF40C" horiz-adv-x="340" unicode=""/>
<glyph d="M315 730q-28 0 -48 7t-37.5 15.5t-35 15.5t-39.5 7q-14 0 -24.5 -6t-18.5 -14q-10 -9 -17 -20l-75 75q13 30 33 55q17 20 44.5 37.5t67.5 17.5q28 0 48 -6.5t37.5 -14t34.5 -13.5t40 -6q13 0 24 5t19 12q10 8 17 18l75 -75q-13 -31 -33 -55q-17 -21 -45 -38t-67 -17z" glyph-name="uniF40D" horiz-adv-x="480" unicode=""/>
<glyph d="M130 900h230l-170 -150h-170z" glyph-name="uniF6C9" horiz-adv-x="380" unicode=""/>
<glyph d="M130 740q-50 0 -80 23.5t-30 61.5t30 61.5t80 23.5t80 -23.5t30 -61.5t-30 -61.5t-80 -23.5zM400 740q-50 0 -80 23.5t-30 61.5t30 61.5t80 23.5t80 -23.5t30 -61.5t-30 -61.5t-80 -23.5z" glyph-name="uniF6CB" horiz-adv-x="530" unicode=""/>
<glyph d="M20 900h230l110 -150h-170z" glyph-name="uniF6CE" horiz-adv-x="380" unicode=""/>
</font>
</defs>
</svg>
